<svg width="101" height="100" viewBox="0 0 101 100" fill="none" xmlns="http://www.w3.org/2000/svg">
<ellipse cx="50.5" cy="50" rx="50.5" ry="50" fill="#E6EBFF"/>
<g clip-path="url(#clip0_1_6806)">
<path d="M64.1216 41.7976V37.8122H60.0681V35.0317H64.1216V31H66.9496V35.0317H71.0502V37.8122H66.9496V41.7976H64.1216ZM32.1181 68.3976C31.7476 68.3988 31.3809 68.3254 31.0405 68.1819C30.7 68.0384 30.393 67.828 30.1385 67.5634C29.8694 67.3131 29.6553 67.0113 29.5094 66.6766C29.3635 66.3418 29.2888 65.9813 29.2901 65.6171V41.8439C29.2935 41.4839 29.3704 41.1282 29.5161 40.7978C29.6619 40.4675 29.8735 40.1693 30.1385 39.9207C30.3896 39.6503 30.6954 39.4344 31.0363 39.2868C31.3772 39.1392 31.7456 39.0631 32.1181 39.0634H39.0467L42.4874 35.0317H55.6847V37.8122H43.8071L40.3664 41.8439H32.1181V65.6171H64.1687V46.1537H66.9967V65.6171C66.997 65.9833 66.9196 66.3455 66.7695 66.6807C66.6193 67.0158 66.3997 67.3164 66.1247 67.5634C65.872 67.8239 65.5686 68.032 65.2327 68.1753C64.8967 68.3185 64.5349 68.3941 64.1687 68.3976H32.1181ZM48.1434 61.6317C49.2042 61.6482 50.2576 61.4541 51.2404 61.0611C52.2232 60.6681 53.1152 60.0842 53.8633 59.3444C54.6113 58.6046 55.1999 57.7241 55.5938 56.7556C55.9878 55.787 56.179 54.7502 56.156 53.7073C56.1823 52.6704 55.9908 51.6393 55.5934 50.6785C55.196 49.7177 54.6013 48.8478 53.8465 48.1232C53.1006 47.3879 52.2103 46.8095 51.2299 46.4232C50.2494 46.0368 49.1993 45.8505 48.1434 45.8756C47.0877 45.8487 46.0374 46.0326 45.056 46.416C44.0746 46.7995 43.1825 47.3746 42.4335 48.1066C41.6846 48.8387 41.0944 49.7124 40.6986 50.675C40.3028 51.6377 40.1096 52.6692 40.1307 53.7073C40.1021 54.7528 40.29 55.7932 40.6829 56.7651C41.0759 57.737 41.6658 58.6202 42.4167 59.361C43.1613 60.1061 44.0541 60.6923 45.0394 61.083C46.0247 61.4737 47.0814 61.6605 48.1434 61.6317ZM48.1434 58.8512C47.4539 58.8736 46.7671 58.7554 46.1263 58.5042C45.4855 58.253 44.9045 57.8741 44.4198 57.3915C43.9361 56.906 43.5573 56.3294 43.3062 55.6963C43.0551 55.0631 42.9369 54.3866 42.9587 53.7073C42.9385 53.0387 43.0577 52.373 43.309 51.7514C43.5602 51.1297 43.9383 50.5653 44.4198 50.0927C44.908 49.6162 45.4902 49.243 46.1306 48.9959C46.7709 48.7489 47.4559 48.6332 48.1434 48.6561C48.8268 48.6376 49.507 48.7553 50.1428 49.0022C50.7787 49.2491 51.3572 49.6201 51.8433 50.0927C52.3312 50.5618 52.7149 51.1252 52.9704 51.7472C53.226 52.3693 53.3477 53.0367 53.328 53.7073C53.3494 54.3885 53.2286 55.0668 52.9733 55.7004C52.718 56.334 52.3334 56.9095 51.8433 57.3915C51.3607 57.8703 50.7834 58.2468 50.147 58.4978C49.5107 58.7489 48.8288 58.8692 48.1434 58.8512Z" fill="#FF6700"/>
</g>
<defs>
<clipPath id="clip0_1_6806">
<rect width="42.42" height="38" fill="white" transform="translate(29.29 31)"/>
</clipPath>
</defs>
</svg>
