<svg width="34" height="34" viewBox="0 0 34 34" fill="none" xmlns="http://www.w3.org/2000/svg">
<g clip-path="url(#clip0_2001_202)">
<path d="M14.6071 17.0282L21.4606 17.0282M27.0573 18.4423L14.7641 24.9505C13.6621 25.5339 13.1111 25.8257 12.7478 25.7418C12.4327 25.669 12.1724 25.4486 12.0489 25.1497C11.9064 24.8051 12.1033 24.2134 12.4976 23.0305L14.3297 17.5342C14.3922 17.3465 14.4235 17.2526 14.4359 17.1566C14.447 17.0714 14.4472 16.9852 14.4361 16.9C14.4237 16.804 14.3923 16.71 14.3297 16.5223L12.4976 11.026C12.1033 9.84306 11.906 9.25162 12.0485 8.90703C12.1721 8.60818 12.4327 8.38754 12.7478 8.31479C13.1111 8.23089 13.6621 8.52269 14.7641 9.10612L27.0574 15.6143C27.9237 16.073 28.3568 16.3022 28.4985 16.6081C28.6218 16.8746 28.622 17.182 28.4986 17.4485C28.357 17.7544 27.9237 17.9836 27.0573 18.4423Z" stroke="#FF6700" stroke-width="2" stroke-linecap="round" stroke-linejoin="round"/>
</g>
<defs>
<clipPath id="clip0_2001_202">
<rect width="24" height="24" fill="white" transform="translate(17 0.0577393) rotate(45)"/>
</clipPath>
</defs>
</svg>
