<svg width="70" height="78" viewBox="0 0 70 78" fill="none" xmlns="http://www.w3.org/2000/svg">
<path d="M1.66708 18.7933V59.2078V59.2084C1.66708 66.7866 1.66708 70.5747 3.25857 72.7652C4.64676 74.6759 6.78074 75.9086 9.12954 76.1555C11.8224 76.4385 15.1036 74.5444 21.6669 70.7551L56.6669 50.5479C63.2301 46.7586 66.5122 44.8631 67.6135 42.3895C68.5741 40.2319 68.5741 37.7672 67.6135 35.6097C66.5127 33.1372 63.233 31.2437 56.6755 27.4577L56.6669 27.4527L21.6669 7.24545C15.1036 3.45614 11.8224 1.56203 9.12954 1.84506C6.78074 2.09192 4.64676 3.32467 3.25857 5.23536C1.66708 7.42585 1.66708 11.2145 1.66708 18.7928V18.7933Z" fill="white" stroke="white" stroke-width="2" stroke-linecap="round" stroke-linejoin="round"/>
</svg>
